<mxfile host="app.diagrams.net" modified="2023-04-20T09:29:53.930Z" agent="Mozilla/5.0 (Windows NT 10.0; Win64; x64) AppleWebKit/537.36 (KHTML, like Gecko) Chrome/112.0.0.0 Safari/537.36" etag="bujoJK6iB7HoGQ45xe0m" version="21.2.1" type="github">
  <diagram name="第 1 页" id="H7Pksx4FEguPrZrJgaQ-">
    <mxGraphModel dx="1728" dy="930" grid="0" gridSize="10" guides="1" tooltips="1" connect="1" arrows="1" fold="1" page="1" pageScale="1" pageWidth="827" pageHeight="1169" math="0" shadow="0">
      <root>
        <mxCell id="0" />
        <mxCell id="1" parent="0" />
        <mxCell id="O6xP8KyloNP_YQb4rTPc-7" value="&lt;b style=&quot;border-color: var(--border-color);&quot;&gt;Txns&lt;/b&gt;" style="shape=note;whiteSpace=wrap;html=1;backgroundOutline=1;darkOpacity=0.05;" vertex="1" parent="1">
          <mxGeometry x="240" y="180" width="80" height="100" as="geometry" />
        </mxCell>
        <mxCell id="O6xP8KyloNP_YQb4rTPc-2" value="" style="shape=flexArrow;endArrow=classic;html=1;rounded=0;" edge="1" parent="1">
          <mxGeometry width="50" height="50" relative="1" as="geometry">
            <mxPoint x="160" y="299.58" as="sourcePoint" />
            <mxPoint x="230" y="299.58" as="targetPoint" />
          </mxGeometry>
        </mxCell>
        <mxCell id="O6xP8KyloNP_YQb4rTPc-1" value="DAO SCs" style="rounded=1;whiteSpace=wrap;html=1;fontStyle=1" vertex="1" parent="1">
          <mxGeometry x="60" y="270" width="120" height="60" as="geometry" />
        </mxCell>
        <mxCell id="O6xP8KyloNP_YQb4rTPc-3" value="&lt;b&gt;Txns&lt;/b&gt;" style="shape=note;whiteSpace=wrap;html=1;backgroundOutline=1;darkOpacity=0.05;" vertex="1" parent="1">
          <mxGeometry x="230" y="240" width="80" height="100" as="geometry" />
        </mxCell>
        <mxCell id="O6xP8KyloNP_YQb4rTPc-4" value="" style="endArrow=classic;html=1;rounded=0;" edge="1" parent="1">
          <mxGeometry width="50" height="50" relative="1" as="geometry">
            <mxPoint x="330" y="300" as="sourcePoint" />
            <mxPoint x="410" y="300" as="targetPoint" />
          </mxGeometry>
        </mxCell>
        <mxCell id="O6xP8KyloNP_YQb4rTPc-5" value="Filter/trace" style="text;html=1;align=center;verticalAlign=middle;resizable=0;points=[];autosize=1;strokeColor=none;fillColor=none;fontStyle=1" vertex="1" parent="1">
          <mxGeometry x="325" y="270" width="80" height="30" as="geometry" />
        </mxCell>
        <mxCell id="O6xP8KyloNP_YQb4rTPc-6" value="&lt;b style=&quot;border-color: var(--border-color);&quot;&gt;Txns&lt;/b&gt;" style="shape=note;whiteSpace=wrap;html=1;backgroundOutline=1;darkOpacity=0.05;" vertex="1" parent="1">
          <mxGeometry x="220" y="310" width="80" height="100" as="geometry" />
        </mxCell>
        <mxCell id="O6xP8KyloNP_YQb4rTPc-8" value="- audits&lt;br&gt;&amp;nbsp;- exploits" style="text;html=1;strokeColor=none;fillColor=none;align=center;verticalAlign=middle;whiteSpace=wrap;rounded=0;" vertex="1" parent="1">
          <mxGeometry x="330" y="310" width="60" height="30" as="geometry" />
        </mxCell>
        <mxCell id="O6xP8KyloNP_YQb4rTPc-9" value="Vul DAO SCs" style="rounded=1;whiteSpace=wrap;html=1;fontStyle=1;fillColor=#f8cecc;strokeColor=#b85450;" vertex="1" parent="1">
          <mxGeometry x="414" y="270" width="120" height="60" as="geometry" />
        </mxCell>
        <mxCell id="O6xP8KyloNP_YQb4rTPc-13" value="Vul Pattern" style="swimlane;fontStyle=1;childLayout=stackLayout;horizontal=1;startSize=30;horizontalStack=0;resizeParent=1;resizeParentMax=0;resizeLast=0;collapsible=1;marginBottom=0;whiteSpace=wrap;html=1;" vertex="1" parent="1">
          <mxGeometry x="404" y="440" width="140" height="120" as="geometry">
            <mxRectangle x="414" y="400" width="60" height="30" as="alternateBounds" />
          </mxGeometry>
        </mxCell>
        <mxCell id="O6xP8KyloNP_YQb4rTPc-23" value="" style="endArrow=classic;html=1;rounded=0;" edge="1" parent="O6xP8KyloNP_YQb4rTPc-13" target="O6xP8KyloNP_YQb4rTPc-22">
          <mxGeometry width="50" height="50" relative="1" as="geometry">
            <mxPoint x="-4" y="55" as="sourcePoint" />
            <mxPoint x="46" y="10" as="targetPoint" />
          </mxGeometry>
        </mxCell>
        <mxCell id="O6xP8KyloNP_YQb4rTPc-14" value="Rule 1" style="text;strokeColor=none;fillColor=none;align=left;verticalAlign=middle;spacingLeft=4;spacingRight=4;overflow=hidden;points=[[0,0.5],[1,0.5]];portConstraint=eastwest;rotatable=0;whiteSpace=wrap;html=1;fontStyle=1" vertex="1" parent="O6xP8KyloNP_YQb4rTPc-13">
          <mxGeometry y="30" width="140" height="30" as="geometry" />
        </mxCell>
        <mxCell id="O6xP8KyloNP_YQb4rTPc-15" value="Rule 2" style="text;strokeColor=none;fillColor=none;align=left;verticalAlign=middle;spacingLeft=4;spacingRight=4;overflow=hidden;points=[[0,0.5],[1,0.5]];portConstraint=eastwest;rotatable=0;whiteSpace=wrap;html=1;fontStyle=1" vertex="1" parent="O6xP8KyloNP_YQb4rTPc-13">
          <mxGeometry y="60" width="140" height="30" as="geometry" />
        </mxCell>
        <mxCell id="O6xP8KyloNP_YQb4rTPc-16" value="&amp;nbsp; &amp;nbsp;..." style="text;strokeColor=none;fillColor=none;align=left;verticalAlign=middle;spacingLeft=4;spacingRight=4;overflow=hidden;points=[[0,0.5],[1,0.5]];portConstraint=eastwest;rotatable=0;whiteSpace=wrap;html=1;fontStyle=1" vertex="1" parent="O6xP8KyloNP_YQb4rTPc-13">
          <mxGeometry y="90" width="140" height="30" as="geometry" />
        </mxCell>
        <mxCell id="O6xP8KyloNP_YQb4rTPc-18" value="" style="shape=flexArrow;endArrow=classic;html=1;rounded=0;" edge="1" parent="1">
          <mxGeometry width="50" height="50" relative="1" as="geometry">
            <mxPoint x="470" y="330" as="sourcePoint" />
            <mxPoint x="470" y="440" as="targetPoint" />
          </mxGeometry>
        </mxCell>
        <mxCell id="O6xP8KyloNP_YQb4rTPc-19" value="analyze" style="text;html=1;strokeColor=none;fillColor=none;align=center;verticalAlign=middle;whiteSpace=wrap;rounded=0;" vertex="1" parent="1">
          <mxGeometry x="474" y="370" width="60" height="30" as="geometry" />
        </mxCell>
        <mxCell id="O6xP8KyloNP_YQb4rTPc-22" value="&lt;b&gt;Detectors&lt;/b&gt;" style="shape=delay;whiteSpace=wrap;html=1;" vertex="1" parent="1">
          <mxGeometry x="225" y="470" width="90" height="50" as="geometry" />
        </mxCell>
        <mxCell id="O6xP8KyloNP_YQb4rTPc-24" value="" style="shape=flexArrow;endArrow=classic;html=1;rounded=0;entryX=0.5;entryY=1;entryDx=0;entryDy=0;" edge="1" parent="1" target="O6xP8KyloNP_YQb4rTPc-1">
          <mxGeometry width="50" height="50" relative="1" as="geometry">
            <mxPoint x="225" y="490" as="sourcePoint" />
            <mxPoint x="120" y="330" as="targetPoint" />
            <Array as="points">
              <mxPoint x="120" y="490" />
              <mxPoint x="120" y="480" />
              <mxPoint x="120" y="460" />
            </Array>
          </mxGeometry>
        </mxCell>
        <mxCell id="O6xP8KyloNP_YQb4rTPc-25" value="&lt;b&gt;Test/Validate&lt;/b&gt;" style="text;html=1;strokeColor=none;fillColor=none;align=center;verticalAlign=middle;whiteSpace=wrap;rounded=0;" vertex="1" parent="1">
          <mxGeometry x="140" y="420" width="60" height="30" as="geometry" />
        </mxCell>
      </root>
    </mxGraphModel>
  </diagram>
</mxfile>
